<?xml version="1.0" encoding="UTF-8"?>
<svg width="242px" height="95px" viewBox="0 0 242 95" version="1.1" xmlns="http://www.w3.org/2000/svg" xmlns:xlink="http://www.w3.org/1999/xlink">
    <!-- Generator: Sketch 53.2 (72643) - https://sketchapp.com -->
    <title>Group 5</title>
    <desc>Created with Sketch.</desc>
    <g id="kuko-web---EL" stroke="none" stroke-width="1" fill="none" fill-rule="evenodd">
        <g id="Desktop-Copy-21" transform="translate(-118.000000, -576.000000)">
            <g id="Group-5" transform="translate(118.000000, 576.000000)">
                <rect id="Rectangle" stroke="#FFFFFF" stroke-width="2" opacity="0.653250558" x="11" y="11" width="210" height="63" rx="8"></rect>
                <rect id="Rectangle" stroke="#FFFFFF" opacity="0.653250558" x="0.5" y="0.5" width="211" height="64" rx="8"></rect>
                <rect id="Rectangle" stroke="#FFFFFF" stroke-width="2" opacity="0.653250558" x="21" y="21" width="210" height="63" rx="8"></rect>
                <g id="Group-7" transform="translate(30.000000, 30.000000)">
                    <rect id="Rectangle-9" stroke="#FFFFFF" fill="#000000" opacity="0.95" x="0.5" y="0.5" width="211" height="64" rx="9"></rect>
                    <path d="M69.984,26.496 L69.984,18.432 L72.42,18.432 C74.856,18.432 76.2,19.68 76.2,22.236 L76.2,22.476 C76.2,24.984 75.036,26.496 72.444,26.496 L69.984,26.496 Z M71.04,25.584 L72.468,25.584 C74.256,25.584 75.06,24.696 75.06,22.632 L75.06,22.236 C75.06,20.052 74.064,19.356 72.312,19.356 L71.04,19.356 L71.04,25.584 Z M79.484,26.604 C77.768,26.604 76.772,25.5 76.772,23.64 L76.772,23.436 C76.772,21.564 77.864,20.412 79.496,20.412 C81.2,20.412 82.22,21.528 82.22,23.4 L82.22,23.592 C82.22,25.464 81.116,26.604 79.484,26.604 Z M79.508,25.764 C80.552,25.764 81.152,25.032 81.152,23.7 L81.152,23.376 C81.152,21.768 80.396,21.252 79.472,21.252 C78.428,21.252 77.828,21.996 77.828,23.328 L77.828,23.664 C77.828,25.272 78.584,25.764 79.508,25.764 Z M84.208,26.496 L82.516,20.532 L83.608,20.532 L84.784,25.188 L84.82,25.188 L86.2,20.532 L87.088,20.532 L88.48,25.188 L88.528,25.188 L89.692,20.532 L90.676,20.532 L88.984,26.496 L87.964,26.496 L86.632,22.104 L86.584,22.104 L85.252,26.496 L84.208,26.496 Z M91.356,26.496 L91.356,20.532 L92.328,20.532 L92.328,21.048 L92.388,21.048 C92.892,20.688 93.66,20.412 94.392,20.412 C95.568,20.412 96.12,20.904 96.12,22.056 L96.12,26.496 L95.112,26.496 L95.112,22.272 C95.112,21.588 94.884,21.3 93.948,21.3 C93.42,21.3 92.808,21.492 92.376,21.696 L92.376,26.496 L91.356,26.496 Z M97.34,26.496 L97.34,17.904 L98.372,17.904 L98.372,26.496 L97.34,26.496 Z M101.98,26.604 C100.264,26.604 99.268,25.5 99.268,23.64 L99.268,23.436 C99.268,21.564 100.36,20.412 101.992,20.412 C103.696,20.412 104.716,21.528 104.716,23.4 L104.716,23.592 C104.716,25.464 103.612,26.604 101.98,26.604 Z M102.004,25.764 C103.048,25.764 103.648,25.032 103.648,23.7 L103.648,23.376 C103.648,21.768 102.892,21.252 101.968,21.252 C100.924,21.252 100.324,21.996 100.324,23.328 L100.324,23.664 C100.324,25.272 101.08,25.764 102.004,25.764 Z M107.028,26.604 C105.96,26.604 105.18,26.064 105.18,24.912 C105.18,23.88 105.852,23.316 106.98,23.172 L108.564,22.98 L108.564,22.428 C108.564,21.516 108.168,21.3 107.1,21.3 C106.512,21.3 106.032,21.396 105.672,21.468 L105.672,20.736 C106.212,20.532 106.776,20.412 107.496,20.412 C108.816,20.412 109.572,20.976 109.572,22.176 L109.572,26.496 L108.756,26.496 L108.648,25.992 L108.588,25.992 C108.288,26.328 107.82,26.604 107.028,26.604 Z M107.28,25.812 C107.808,25.812 108.3,25.644 108.564,25.404 L108.564,23.76 L107.244,23.892 C106.56,23.964 106.236,24.24 106.236,24.888 C106.236,25.512 106.656,25.812 107.28,25.812 Z M112.88,26.604 C111.74,26.604 110.42,25.896 110.42,23.7 L110.42,23.532 C110.42,21.36 111.548,20.412 113.072,20.412 C113.804,20.412 114.284,20.604 114.596,20.784 L114.596,17.904 L115.616,17.904 L115.616,26.496 L114.752,26.496 L114.656,26.016 L114.596,26.016 C114.248,26.364 113.672,26.604 112.88,26.604 Z M113.216,25.764 C113.876,25.764 114.344,25.5 114.596,25.296 L114.596,21.636 C114.344,21.432 113.804,21.288 113.204,21.288 C112.112,21.288 111.488,21.84 111.488,23.4 L111.488,23.664 C111.488,25.272 112.184,25.764 113.216,25.764 Z M121.944,26.604 C120.228,26.604 119.232,25.5 119.232,23.64 L119.232,23.436 C119.232,21.564 120.324,20.412 121.956,20.412 C123.66,20.412 124.68,21.528 124.68,23.4 L124.68,23.592 C124.68,25.464 123.576,26.604 121.944,26.604 Z M121.968,25.764 C123.012,25.764 123.612,25.032 123.612,23.7 L123.612,23.376 C123.612,21.768 122.856,21.252 121.932,21.252 C120.888,21.252 120.288,21.996 120.288,23.328 L120.288,23.664 C120.288,25.272 121.044,25.764 121.968,25.764 Z M125.528,26.496 L125.528,20.532 L126.5,20.532 L126.5,21.048 L126.56,21.048 C127.064,20.688 127.832,20.412 128.564,20.412 C129.74,20.412 130.292,20.904 130.292,22.056 L130.292,26.496 L129.284,26.496 L129.284,22.272 C129.284,21.588 129.056,21.3 128.12,21.3 C127.592,21.3 126.98,21.492 126.548,21.696 L126.548,26.496 L125.528,26.496 Z M136.164,26.556 C135.216,26.556 134.556,26.148 134.556,25.092 L134.556,21.384 L133.704,21.384 L133.704,20.532 L134.556,20.532 L134.556,19.116 L135.576,19.116 L135.576,20.532 L137.076,20.532 L137.076,21.384 L135.576,21.384 L135.576,24.948 C135.576,25.512 135.768,25.728 136.44,25.728 C136.68,25.728 136.956,25.692 137.196,25.632 L137.196,26.328 C136.944,26.436 136.704,26.556 136.164,26.556 Z M137.972,26.496 L137.972,17.904 L138.992,17.904 L138.992,21.024 L139.052,21.024 C139.532,20.688 140.276,20.412 141.008,20.412 C142.184,20.412 142.736,20.904 142.736,22.056 L142.736,26.496 L141.728,26.496 L141.728,22.272 C141.728,21.588 141.5,21.3 140.564,21.3 C140.036,21.3 139.424,21.492 138.992,21.696 L138.992,26.496 L137.972,26.496 Z M146.404,26.604 C144.52,26.604 143.56,25.44 143.56,23.604 L143.56,23.424 C143.56,21.348 144.796,20.412 146.188,20.412 C147.82,20.412 148.6,21.36 148.6,23.232 L148.6,23.808 L144.616,23.808 C144.688,25.224 145.384,25.728 146.572,25.728 C147.364,25.728 147.88,25.56 148.42,25.272 L148.42,26.028 C148.072,26.292 147.388,26.604 146.404,26.604 Z M146.14,21.24 C145.468,21.24 144.712,21.612 144.616,22.98 L147.52,22.98 C147.52,21.732 147.04,21.24 146.14,21.24 Z M69.247,44.221 L73.997,31.187 L76.391,31.187 L81.027,44.221 L78.614,44.221 L77.436,40.915 L72.591,40.915 L71.413,44.221 L69.247,44.221 Z M74.966,33.961 L73.142,39.167 L76.847,39.167 L75.023,33.961 L74.966,33.961 Z M82.242,47.052 L82.242,34.436 L84.351,34.436 L84.351,35.272 L84.427,35.272 C85.016,34.683 86.023,34.265 87.258,34.265 C89.291,34.265 91.134,35.443 91.134,39.034 L91.134,39.281 C91.134,42.948 89.367,44.392 86.707,44.392 C85.624,44.392 84.902,44.107 84.427,43.841 L84.427,47.052 L82.242,47.052 Z M86.403,42.739 C87.961,42.739 88.854,41.941 88.854,39.566 L88.854,39.167 C88.854,36.754 88.018,36.051 86.479,36.051 C85.548,36.051 84.807,36.355 84.427,36.621 L84.427,42.169 C84.807,42.473 85.548,42.739 86.403,42.739 Z M92.805,47.052 L92.805,34.436 L94.914,34.436 L94.914,35.272 L94.99,35.272 C95.579,34.683 96.586,34.265 97.821,34.265 C99.854,34.265 101.697,35.443 101.697,39.034 L101.697,39.281 C101.697,42.948 99.93,44.392 97.27,44.392 C96.187,44.392 95.465,44.107 94.99,43.841 L94.99,47.052 L92.805,47.052 Z M96.966,42.739 C98.524,42.739 99.417,41.941 99.417,39.566 L99.417,39.167 C99.417,36.754 98.581,36.051 97.042,36.051 C96.111,36.051 95.37,36.355 94.99,36.621 L94.99,42.169 C95.37,42.473 96.111,42.739 96.966,42.739 Z M111.309,44.449 C109.599,44.449 108.307,44.088 107.414,43.613 L107.414,41.77 C108.459,42.226 109.694,42.568 111.119,42.568 C112.867,42.568 113.608,41.846 113.608,40.668 C113.608,39.585 113.133,39.167 111.708,38.73 L110.473,38.388 C108.63,37.875 107.509,36.887 107.509,34.683 C107.509,32.479 108.934,30.978 111.879,30.978 C113.589,30.978 114.52,31.301 115.242,31.681 L115.242,33.505 C114.425,33.163 113.361,32.859 111.917,32.859 C110.549,32.859 109.789,33.429 109.789,34.474 C109.789,35.5 110.169,35.937 111.461,36.298 L112.677,36.678 C114.729,37.267 115.964,38.122 115.964,40.44 C115.964,42.91 114.463,44.449 111.309,44.449 Z M121.017,44.335 C119.326,44.335 118.243,43.651 118.243,41.808 L118.243,36.146 L116.875,36.146 L116.875,34.436 L118.243,34.436 L118.243,32.137 L120.39,32.137 L120.39,34.436 L122.727,34.436 L122.727,36.146 L120.39,36.146 L120.39,41.504 C120.39,42.321 120.694,42.625 121.72,42.625 C122.1,42.625 122.499,42.568 122.841,42.473 L122.841,43.936 C122.461,44.126 121.929,44.335 121.017,44.335 Z M128.521,44.392 C125.538,44.392 123.885,42.587 123.885,39.528 L123.885,39.224 C123.885,36.089 125.785,34.265 128.54,34.265 C131.466,34.265 133.157,36.051 133.157,39.167 L133.157,39.433 C133.157,42.587 131.257,44.392 128.521,44.392 Z M128.559,42.739 C130.022,42.739 130.877,41.732 130.877,39.623 L130.877,39.148 C130.877,36.602 129.832,35.918 128.502,35.918 C127.001,35.918 126.127,36.963 126.127,39.072 L126.127,39.528 C126.127,42.055 127.191,42.739 128.559,42.739 Z M134.771,44.221 L134.771,34.436 L136.88,34.436 L136.88,35.576 L136.956,35.576 C137.488,34.873 138.495,34.36 139.521,34.36 C139.787,34.36 140.034,34.379 140.129,34.417 L140.129,36.355 C139.882,36.317 139.559,36.298 139.331,36.298 C138.457,36.298 137.583,36.545 136.956,36.944 L136.956,44.221 L134.771,44.221 Z M145.828,44.392 C142.579,44.392 140.983,42.549 140.983,39.452 L140.983,39.186 C140.983,35.899 142.978,34.284 145.467,34.284 C148.355,34.284 149.609,35.899 149.609,39.015 L149.609,39.927 L143.225,39.927 C143.358,41.96 144.403,42.682 146.265,42.682 C147.519,42.682 148.431,42.397 149.286,41.96 L149.286,43.48 C148.621,43.917 147.481,44.392 145.828,44.392 Z M145.429,35.899 C144.422,35.899 143.377,36.431 143.225,38.426 L147.386,38.426 C147.386,36.583 146.702,35.899 145.429,35.899 Z" id="DownloadontheAppStore" fill="#E2E3E4" fill-rule="nonzero"></path>
                    <g id="apple-logo" transform="translate(25.000000, 14.000000)" fill="#FFFFFF" fill-rule="nonzero">
                        <path d="M26,24.4720399 C25.9136736,24.7213351 25.8300449,24.9890285 25.733827,25.2521224 C24.9371063,27.458983 23.7276376,29.4183883 22.260089,31.2140498 C21.9768306,31.5636151 21.646812,31.8800636 21.3060026,32.1735145 C20.6324769,32.7567365 19.8573379,33.1090615 18.9608023,33.1412583 C18.2872767,33.1633361 17.640728,33.0382285 17.0175594,32.7788143 C16.5661443,32.590233 16.1219231,32.379574 15.6642134,32.2093909 C14.1786801,31.6574457 12.7012399,31.7301185 11.2399859,32.3206998 C10.7130352,32.5341186 10.1932784,32.7696152 9.6564362,32.9545168 C9.03416681,33.1679356 8.38851736,33.254407 7.73117787,33.1274596 C7.15746708,33.0179905 6.65569494,32.7447777 6.18989213,32.3924527 C5.61168517,31.9545762 5.12609923,31.4210292 4.67198645,30.8562054 C2.52191982,28.173752 1.0786505,25.1408134 0.381744756,21.7435911 C0.0814008597,20.2827763 -0.0624764557,18.8100026 0.0256484,17.316991 C0.12906022,15.5268489 0.535513637,13.8222583 1.47071619,12.286011 C2.64421554,10.3551229 4.2997039,9.09024865 6.47764676,8.56866049 C7.78782957,8.25313185 9.06204304,8.38191905 10.311078,8.87407014 C10.9684175,9.13164454 11.6275554,9.38645921 12.2875926,9.63943407 C12.8954743,9.87309085 13.5006582,9.87309085 14.1094391,9.63483453 C14.7829648,9.37174067 15.4573897,9.10956673 16.1336131,8.85291224 C16.8269219,8.59441793 17.5319208,8.38283896 18.2674935,8.3230449 C19.368155,8.23197395 20.4418395,8.37823942 21.4867485,8.73608385 C22.9677856,9.24295347 24.1727581,10.1398643 25.0827821,11.4461345 C25.1070614,11.4820109 25.1340384,11.521567 25.1520231,11.5500842 C22.8571799,13.1866015 21.550594,15.3483867 21.7403322,18.2755357 C21.9318689,21.2045246 23.4731546,23.1860077 26,24.4720399 Z M12.5316193,6.91234656 C13.2478865,6.92909767 13.9365683,6.80765211 14.5995672,6.5756492 C17.623489,5.518654 19.2044133,2.70195444 19.1568524,0.547761378 C19.1530475,0.374387364 19.1397305,0.20101335 19.1311695,0 C18.8201212,0.0410402255 18.5366583,0.0603040049 18.2646099,0.12060801 C16.0568331,0.59717716 14.3579578,1.68181169 13.2412279,3.43816583 C12.5877412,4.46668414 12.2243759,5.55885667 12.3356684,6.75237344 C12.3432782,6.87884434 12.3955952,6.91067145 12.5316193,6.91234656 Z" id="Shape"></path>
                    </g>
                </g>
            </g>
        </g>
    </g>
</svg>