<?xml version="1.0" encoding="UTF-8"?>
<svg width="242px" height="95px" viewBox="0 0 242 95" version="1.1" xmlns="http://www.w3.org/2000/svg" xmlns:xlink="http://www.w3.org/1999/xlink">
    <!-- Generator: Sketch 53.2 (72643) - https://sketchapp.com -->
    <title>Group 5</title>
    <desc>Created with Sketch.</desc>
    <g id="kuko-web---EL" stroke="none" stroke-width="1" fill="none" fill-rule="evenodd">
        <g id="Desktop-Copy-23" transform="translate(-118.000000, -570.000000)">
            <g id="Group-5" transform="translate(118.000000, 570.000000)">
                <rect id="Rectangle" stroke="#FFFFFF" stroke-width="2" opacity="0.653250558" x="11" y="11" width="210" height="63" rx="8"></rect>
                <rect id="Rectangle" stroke="#FFFFFF" opacity="0.653250558" x="0.5" y="0.5" width="211" height="64" rx="8"></rect>
                <rect id="Rectangle" stroke="#FFFFFF" stroke-width="2" opacity="0.653250558" x="21" y="21" width="210" height="63" rx="8"></rect>
                <g id="Download_on_the_App_Store_Badge_KR_RGB_blk_100317" transform="translate(30.000000, 30.000000)">
                    <g>
                        <g id="Group" fill-rule="nonzero">
                            <path d="M195.971838,0 L15.5488628,0 C14.9508597,0 14.360032,0 13.7636108,0.00325 C13.2643508,0.0065 12.7690698,0.01594125 12.2650154,0.0238875 C11.1699762,0.0367279309 10.0775121,0.132723922 8.99711692,0.31104125 C7.91823927,0.49324052 6.87315826,0.836738078 5.89722031,1.32991625 C4.92247596,1.82726653 4.03182418,2.47352224 3.25757569,3.24523875 C2.47926253,4.01478512 1.83047842,4.90427661 1.33617077,5.87951 C0.840498856,6.85280232 0.496798351,7.89577473 0.31694,8.972405 C0.135371689,10.0476755 0.0376681284,11.1353459 0.0247061538,12.225655 C0.00957261538,12.72388 0.00797446154,13.2237625 0,13.7220525 L0,51.282725 C0.00797446154,51.7872875 0.00957261538,52.2760875 0.0247061538,52.7808125 C0.0376721033,53.8710675 0.135375665,54.9586836 0.31694,56.0339 C0.496301708,57.1111597 0.840022534,58.1547308 1.33617077,59.1283875 C1.83025397,60.1004672 2.47912933,60.9863576 3.25757569,61.751625 C4.02888848,62.5267728 4.92011595,63.1734682 5.89722031,63.6670125 C6.87315085,64.1615106 7.91811919,64.5070527 8.99711692,64.6920625 C10.0776958,64.8689514 11.1700475,64.9649864 12.2650154,64.9793625 C12.7690698,64.9904125 13.2643508,64.99675 13.7636108,64.99675 C14.3600157,65 14.9508923,65 15.5488628,65 L195.971838,65 C196.557936,65 197.153493,65 197.739592,64.99675 C198.236487,64.99675 198.746102,64.9904125 199.242998,64.9793625 C200.335896,64.965751 201.426191,64.8697099 202.504536,64.6920625 C203.587015,64.5057503 204.63573,64.1602997 205.61637,63.6670125 C206.592593,63.1731825 207.482998,62.5265047 208.25365,61.751625 C209.030088,60.9833604 209.680349,60.098118 210.180567,59.1283875 C210.672992,58.1540225 211.013441,57.1105348 211.190176,56.0339 C211.372031,54.9585361 211.473202,53.8711619 211.492847,52.7808125 C211.499207,52.2760875 211.499207,51.7872875 211.499207,51.282725 C211.511927,50.6923625 211.511927,50.10525 211.511927,49.5053 L211.511927,15.4962112 C211.511927,14.90112 211.511927,14.31079 211.499207,13.7220525 C211.499207,13.2237625 211.499207,12.72388 211.492847,12.22559 C211.473206,11.1351865 211.372035,10.047758 211.190176,8.97234 C211.012949,7.8963326 210.67252,6.85344283 210.180567,5.879445 C209.173933,3.92469363 207.577702,2.33354127 205.61637,1.32977 C204.635727,0.837796993 203.5869,0.494390666 202.504536,0.310895 C201.426377,0.131792023 200.335969,0.0357626179 199.242998,0.02366 C198.746102,0.01573 198.236487,0.0062075 197.739592,0.00303875 C197.153477,0 196.557936,0 195.971838,0 Z" id="Path" fill="#FFFFFF"></path>
                            <path d="M13.7715689,63.578125 C13.2747062,63.578125 12.7898458,63.5717875 12.2968806,63.5607375 C11.2756632,63.5474787 10.2568326,63.4588907 9.24874462,63.2957 C8.30875342,63.1343833 7.39815461,62.8343048 6.546984,62.4053625 C5.70361816,61.9799743 4.93440072,61.4221934 4.26879938,60.7533875 C3.59356361,60.0924598 3.03139898,59.3258964 2.60458308,58.484075 C2.17306402,57.6367823 1.87442716,56.7285868 1.71907538,55.791125 C1.55130895,54.7838117 1.46054036,53.765259 1.44755231,52.74425 C1.43721323,52.4015375 1.42367785,51.2604625 1.42367785,51.2604625 L1.42367785,13.7220525 C1.42367785,13.7220525 1.43809385,12.5985112 1.44763385,12.268425 C1.46006981,11.2490333 1.55031058,10.2320613 1.71757508,9.22631125 C1.87321361,8.28628138 2.17208167,7.37546691 2.60383292,6.52539875 C3.02908017,5.68415875 3.58812378,4.91702298 4.259292,4.25373 C4.92970584,3.58413481 5.70138386,3.02348169 6.54618492,2.59221625 C7.3953993,2.1646521 8.30427719,1.86669039 9.24236831,1.70831375 C10.253767,1.54348373 11.2761346,1.45436864 12.3008923,1.44171625 L13.772368,1.421875 L197.731601,1.421875 L199.220656,1.4425125 C200.236093,1.45453613 201.249173,1.5428562 202.251278,1.70672125 C203.198866,1.86708449 204.117215,2.16712524 204.97613,2.5969775 C206.668572,3.46610322 208.04568,4.84114044 208.914438,6.52936375 C209.339298,7.37356354 209.633556,8.27694848 209.787226,9.20885875 C209.956482,10.222861 210.051209,11.2478248 210.070653,12.275575 C210.075382,12.735775 210.075382,13.2301 210.075382,13.7220525 C210.088266,14.3314275 210.088266,14.9114387 210.088266,15.4962112 L210.088266,49.5053 C210.088266,50.0956625 210.088266,50.671725 210.075382,51.2525 C210.075382,51.78095 210.075382,52.2650375 210.069022,52.7632625 C210.05,53.772673 209.956851,54.7793419 209.790324,55.7752 C209.638157,56.7194244 209.341146,57.6347088 208.909709,58.48895 C208.479876,59.3216343 207.920939,60.0815576 207.253499,60.7407125 C206.587299,61.4131125 205.816724,61.9741569 204.971401,62.402275 C204.114866,62.8345147 203.197867,63.135703 202.251278,63.2957 C201.243266,63.4597616 200.224338,63.5483553 199.203044,63.5607375 C198.725392,63.5717875 198.225235,63.578125 197.739592,63.578125 L195.971838,63.581375 L13.7715689,63.578125 Z" id="Path" fill="#000000"></path>
                        </g>
                        <g id="Group" transform="translate(55.446154, 37.375000)" fill="#FFFFFF" fill-rule="nonzero">
                            <path d="M6.403672,3.7117925 L2.30445631,3.7117925 L2.30445631,9.38184 C3.99883392,9.41325611 5.69251017,9.28894839 7.36398308,9.010495 L7.51448677,10.232495 C5.5896354,10.5316005 3.64333485,10.6722537 1.69531508,10.6530288 L0.806676308,10.6530288 L0.806676308,2.47559 L6.40368831,2.47559 L6.403672,3.7117925 Z M9.80773969,5.98901875 L11.5778582,5.98901875 L11.5778582,7.2331675 L9.80773969,7.2331675 L9.80773969,13.4808375 L8.29560892,13.4808375 L8.29560892,1.33300375 L9.80773969,1.33300375 L9.80773969,5.98901875 Z" id="Shape"></path>
                            <path d="M23.7353732,7.31885375 L23.7353732,8.51855875 L19.0771625,8.51855875 L19.0771625,10.8100688 L17.5507625,10.8100688 L17.5507625,8.51855875 L12.7133465,8.51855875 L12.7133465,7.31885375 L23.7353732,7.31885375 Z M13.9961422,4.111705 C13.9961422,2.70411375 15.6372668,1.6837275 18.2315271,1.6837275 C20.8257874,1.6837275 22.4813117,2.70411375 22.4813117,4.111705 C22.4813117,5.53993375 20.8258526,6.56032 18.2459268,6.56032 C15.6372668,6.56030375 13.9961422,5.5399175 13.9961422,4.11168875 L13.9961422,4.111705 Z M15.5799289,11.9589925 L22.4668957,11.9589925 L22.4668957,13.15236 L14.0821326,13.15236 L14.0821326,9.695985 L15.5799289,9.695985 L15.5799289,11.9589925 Z M15.5369255,4.12598875 C15.5369255,4.90358375 16.6763929,5.4050425 18.2243517,5.4050425 C19.8225055,5.4050425 20.9261123,4.90358375 20.9261123,4.12598875 C20.9261123,3.33253375 19.8296483,2.82631375 18.2315271,2.82631375 C16.6763929,2.8262975 15.5369255,3.3325175 15.5369255,4.1259725 L15.5369255,4.12598875 Z" id="Shape"></path>
                            <polygon id="Path" points="36.1285834 10.74658 36.1285834 11.946285 25.1065566 11.946285 25.1065566 10.74658 29.8579169 10.74658 29.8579169 8.76770375 26.5183462 8.76770375 26.5183462 4.78296 33.2046631 4.78296 33.2046631 3.30395 26.4968526 3.30395 26.4968526 2.097875 34.7311283 2.097875 34.7311283 5.99691625 28.0233015 5.99691625 28.0233015 7.56796625 35.0392785 7.56796625 35.0392785 8.76767125 31.3629538 8.76767125 31.3629538 10.7465475"></polygon>
                            <path d="M48.5225763,11.8669363 L37.5005658,11.8669363 L37.5005658,10.6672313 L48.5225926,10.6672313 L48.5225763,11.8669363 Z M47.1036114,3.57690125 L40.4173108,3.57690125 L40.4173108,6.91894125 L47.1967935,6.91894125 L47.1967935,8.1313375 L38.9266898,8.1313375 L38.9266898,2.36133625 L47.1036277,2.36133625 L47.1036114,3.57690125 Z" id="Shape"></path>
                            <path d="M60.6243517,5.45423125 L53.5152252,5.45423125 L53.5152252,4.262375 L60.624368,4.262375 L60.6243517,5.45423125 Z M57.1334945,11.175125 C55.7460132,11.0021331 54.7423189,9.76957663 54.8581982,8.38101609 C54.9740775,6.99245555 56.1682934,5.94202539 57.5653921,5.99977322 C58.9624909,6.05752104 60.0652995,7.20289666 60.0653729,8.59625 C60.0477536,9.33575464 59.7213673,10.0344175 59.1648349,10.5239424 C58.6083025,11.0134673 57.872074,11.2494785 57.1334945,11.175125 L57.1334945,11.175125 Z M58.976068,3.34052875 L55.2781846,3.34052875 L55.2781846,2.12015375 L58.9760843,2.12015375 L58.976068,3.34052875 Z M57.1334945,9.98811125 C57.6547101,10.0204664 58.1508462,9.76175192 58.4212817,9.31658341 C58.6917172,8.8714149 58.6917172,8.31343135 58.4212817,7.86826284 C58.1508462,7.42309433 57.6547101,7.16437986 57.1334945,7.196735 C56.6205539,7.17754701 56.1381174,7.43928735 55.8759267,7.87901383 C55.6137359,8.31874031 55.6137359,8.86610594 55.8759267,9.30583242 C56.1381174,9.7455589 56.6205539,10.0072992 57.1334945,9.98811125 Z M63.0959945,6.354075 L64.8446031,6.354075 L64.8446031,7.58870125 L63.0959945,7.58870125 L63.0959945,13.4809513 L61.5926372,13.4809513 L61.5926372,1.34095 L63.0960108,1.34095 L63.0959945,6.354075 Z" id="Shape"></path>
                            <path d="M66.854412,11.2734375 L66.0024003,10.0959463 C68.5835935,8.99276341 70.3988912,6.62606362 70.7896049,3.85461375 L66.6824148,3.85461375 L66.6824148,2.6120575 L72.3948852,2.6120575 C72.3601858,6.31678847 70.2100744,9.67804134 66.854412,11.2734375 L66.854412,11.2734375 Z M76.0561578,13.4887675 L74.5448262,13.4887675 L74.5448262,1.33300375 L76.0561578,1.33300375 L76.0561578,13.4887675 Z" id="Shape"></path>
                        </g>
                        <g id="Group" transform="translate(55.446154, 13.000000)" fill="#FFFFFF" fill-rule="nonzero">
                            <path d="M11.6766012,13.900575 L5.08025385,13.900575 L3.49726615,18.561335 L0.702339692,18.561335 L6.95144738,1.314755 L9.85310769,1.314755 L16.1022154,18.561335 L13.2595889,18.561335 L11.6766012,13.900575 Z M5.76346462,11.74875 L10.9933415,11.74875 L8.41346462,4.18393625 L8.34179231,4.18393625 L5.76346462,11.74875 Z" id="Shape"></path>
                            <path d="M29.6214228,12.275575 C29.6214228,16.1825625 27.5224434,18.6930575 24.3564517,18.6930575 C22.7193105,18.7790446 21.1769946,17.9246109 20.3862462,16.4935875 L20.3273265,16.4935875 L20.3273265,22.7205875 L17.7362462,22.7205875 L17.7362462,5.9882225 L20.2429178,5.9882225 L20.2429178,8.07977625 L20.2906994,8.07977625 C21.1165062,6.65746713 22.660524,5.80311442 24.3086865,5.8565 C27.5113052,5.8565 29.6214228,8.37811 29.6214228,12.275575 Z M26.9586865,12.275575 C26.9586865,9.7285825 25.6400628,8.05597 23.6254757,8.05597 C21.6459338,8.05597 20.3145738,9.76508 20.3145738,12.275575 C20.3145738,14.8082837 21.6459502,16.506295 23.6254757,16.506295 C25.6400628,16.5062788 26.9586865,14.8447813 26.9586865,12.275575 Z" id="Shape"></path>
                            <path d="M43.5339228,12.275575 C43.5339228,16.1825625 41.4349434,18.6930575 38.2689517,18.6930575 C36.6318048,18.779051 35.0894809,17.9246163 34.2987298,16.4935875 L34.2398102,16.4935875 L34.2398102,22.7205875 L31.6487462,22.7205875 L31.6487462,5.9882225 L34.1554178,5.9882225 L34.1554178,8.07977625 L34.2031994,8.07977625 C35.0290062,6.65746713 36.573024,5.80311442 38.2211865,5.8565 C41.4238052,5.8565 43.5339228,8.37811 43.5339228,12.275575 Z M40.8711865,12.275575 C40.8711865,9.7285825 39.5525628,8.05597 37.5379757,8.05597 C35.5584338,8.05597 34.2270738,9.76508 34.2270738,12.275575 C34.2270738,14.8082837 35.5584502,16.506295 37.5379757,16.506295 C39.5525628,16.5062788 40.8711865,14.8447813 40.8711865,12.275575 Z" id="Shape"></path>
                            <path d="M52.7619077,13.7561613 C52.9545994,15.4652713 54.6204138,16.5887963 56.8993486,16.5887963 C59.0827366,16.5887963 60.6545698,15.465255 60.6545698,13.924365 C60.6545698,12.5850075 59.7070114,11.7851988 57.4631545,11.2345513 L55.2208468,10.696595 C52.0421188,9.9317075 50.5674142,8.451105 50.5674142,6.04852625 C50.5674142,3.07307 53.1696326,1.0291125 56.8643523,1.0291125 C60.5224286,1.0291125 63.0291003,3.07305375 63.11346,6.04852625 L60.4985378,6.04852625 C60.3424732,4.326725 58.9155502,3.28729375 56.8276763,3.28729375 C54.7414332,3.28729375 53.3145102,4.33941625 53.3145102,5.8692075 C53.3145102,7.0879575 54.2254415,7.80524875 56.4566111,8.35432 L58.3628988,8.82087375 C61.912692,9.65718 63.3889295,11.079055 63.3889295,13.6022412 C63.3889295,16.828435 60.8106018,18.8485862 56.7081898,18.8485862 C52.8701418,18.8485862 50.2798769,16.8760475 50.1126578,13.7561775 L52.7619077,13.7561613 Z" id="Path"></path>
                            <path d="M68.9804622,3.01275 L68.9804622,5.98820625 L71.3787692,5.98820625 L71.3787692,8.0321475 L68.9803969,8.0321475 L68.9803969,14.9638125 C68.9803969,16.0397412 69.4597615,16.5412 70.5156194,16.5412 C70.7999435,16.5368748 71.0838268,16.5172759 71.3660329,16.4824888 L71.3660329,18.5137388 C70.89193,18.6016476 70.4101162,18.6415224 69.9279554,18.6327537 C67.3719203,18.6327537 66.3765803,17.6774325 66.3765803,15.23834 L66.3765803,8.03216375 L64.5419649,8.03216375 L64.5419649,5.9882225 L66.3765803,5.9882225 L66.3765803,3.01275 L68.9804622,3.01275 Z" id="Path"></path>
                            <path d="M72.7977994,12.275575 C72.7977994,8.31939875 75.1356538,5.83271 78.782592,5.83271 C82.4406683,5.83271 84.7673846,8.31939875 84.7673846,12.275575 C84.7673846,16.2428662 82.4534046,18.7168638 78.782592,18.7168638 C75.1117794,18.7168638 72.7977994,16.2428662 72.7977994,12.275575 Z M82.1285391,12.275575 C82.1285391,9.561955 80.8815714,7.96076125 78.782592,7.96076125 C76.6836126,7.96076125 75.4366449,9.57307 75.4366449,12.275575 C75.4366449,15.00031 76.6836126,16.5888125 78.782592,16.5888125 C80.8815714,16.5888125 82.1285391,15.000375 82.1285391,12.275575 Z" id="Shape"></path>
                            <path d="M86.9045892,5.9882225 L89.3746338,5.9882225 L89.3746338,8.12738875 L89.4351517,8.12738875 C89.7791585,6.75005622 91.0456132,5.80207798 92.4689532,5.8565 C92.7679148,5.8546377 93.0660954,5.88711914 93.357592,5.95330125 L93.357592,8.366995 C92.9805987,8.25246368 92.5873896,8.19993733 92.1934348,8.2114825 C91.4322852,8.1805044 90.6955883,8.4826706 90.1768792,9.03860003 C89.65817,9.59452945 89.4093016,10.3486485 89.4956532,11.102845 L89.4956532,18.561335 L86.9045892,18.561335 L86.9045892,5.9882225 Z" id="Path"></path>
                            <path d="M105.298508,14.8685875 C104.70994,17.3262512 102.387569,18.9709959 99.8647852,18.7168475 C96.1955545,18.7168475 93.9166197,16.2666563 93.9166197,12.3342862 C93.9166197,8.39080125 96.2067089,5.83266125 99.7580351,5.83266125 C103.24731,5.83266125 105.441837,8.22254875 105.441837,12.0359037 L105.441837,12.9198225 L96.5315418,12.9198225 L96.5315418,13.075335 C96.4481123,14.0113027 96.7723269,14.9378664 97.4216803,15.6192366 C98.0710337,16.3006067 98.9829089,16.6710789 99.9252542,16.6363762 C101.182079,16.7539628 102.367195,16.0350852 102.839569,14.8685875 L105.298508,14.8685875 Z M96.5426724,11.1155363 L102.852354,11.1155362 C102.898984,10.2746144 102.591689,9.45239072 102.004412,8.84670943 C101.417135,8.24102814 100.603047,7.90672758 99.7580351,7.9242475 C98.9058822,7.91902393 98.0869303,8.25316206 97.4831613,8.85241203 C96.8793922,9.451662 96.5408201,10.266384 96.5426724,11.1155363 L96.5426724,11.1155363 Z" id="Shape"></path>
                            <path d="M115.927177,1.60515875 L117.946526,1.60515875 L117.946526,17.7393125 L115.927177,17.7393125 L115.927177,9.59528375 L114.447694,9.59528375 C114.262961,12.4723625 113.090894,14.973335 110.722724,14.973335 C108.122087,14.973335 106.969085,11.96455 106.969085,8.75262375 C106.969085,5.53912125 108.122038,2.59224875 110.722724,2.59224875 C113.039884,2.59224875 114.211999,4.92977875 114.43654,7.71480125 L115.927161,7.71480125 L115.927177,1.60515875 Z M112.488863,8.75262375 C112.488863,6.38337375 111.917132,4.5742775 110.72274,4.5742775 C109.560181,4.5742775 109.029855,6.3833575 109.029855,8.75262375 C109.029855,11.1314125 109.560181,12.919855 110.72274,12.919855 C111.917148,12.919855 112.488831,11.1314125 112.488831,8.75262375 L112.488863,8.75262375 Z M121.475609,1.2592125 L121.475609,18.5518125 L119.45626,18.5518125 L119.45626,1.2592125 L121.475609,1.2592125 Z" id="Shape"></path>
                            <path d="M130.6041,5.315375 C130.458532,8.42586344 132.127959,11.3405772 134.889648,12.7976712 L133.634722,14.4147412 C131.780578,13.3640522 130.332954,11.7248945 129.52277,9.7587425 C128.787843,11.898809 127.312019,13.7080832 125.35984,14.86225 L124.033242,13.2959612 C126.85144,11.6759052 128.528243,8.6254753 128.380873,5.3867775 L128.380873,2.71282375 L130.604068,2.71282375 L130.6041,5.315375 Z M138.735654,18.5518288 L136.572977,18.5518288 L136.572977,9.04619625 L133.093258,9.04619625 L133.093258,7.22759375 L136.572977,7.22759375 L136.572977,1.2592125 L138.735654,1.2592125 L138.735654,18.5518288 Z" id="Shape"></path>
                        </g>
                        <g id="_Group_" transform="translate(14.676923, 13.000000)" fill="#FFFFFF" fill-rule="nonzero">
                            <g id="_Group_2">
                                <path d="M25.7154043,19.988605 C25.751048,17.2318398 27.2014312,14.6854274 29.5584098,13.2415075 C28.0647437,11.1158332 25.6526393,9.81642732 23.0497489,9.7352775 C20.311296,9.448855 17.6564852,11.3681262 16.2610197,11.3681262 C14.8385486,11.3681262 12.6900102,9.763715 10.3763889,9.81114875 C7.33226667,9.90914993 4.56311601,11.5919789 3.08208862,14.2439375 C-0.0718190769,19.68512 2.28071231,27.6818263 5.30189169,32.0800675 C6.81345169,34.2337613 8.58003138,36.6394925 10.8915652,36.55418 C13.15354,36.4606937 13.9983437,35.1169 16.7287406,35.1169 C19.4337954,35.1169 20.2263982,36.55418 22.5848329,36.4999375 C25.0120372,36.4606775 26.5412911,34.3366725 27.9998185,32.162585 C29.0858718,30.6279995 29.9215881,28.9319484 30.4760111,27.1372563 C27.5932295,25.9222946 25.718769,23.1075558 25.7154043,19.988605 L25.7154043,19.988605 Z" id="_Path_"></path>
                                <path d="M21.2607462,6.84269625 C22.5841588,5.2596081 23.2361539,3.22481649 23.0782711,1.17043875 C21.0563909,1.38204704 19.18874,2.34495572 17.8474483,3.867305 C16.5229844,5.36930717 15.852014,7.3343281 15.9823212,9.32956375 C18.0313124,9.35058599 19.9767862,8.43399898 21.2607462,6.84269625 L21.2607462,6.84269625 Z" id="_Path_2"></path>
                            </g>
                        </g>
                    </g>
                </g>
            </g>
        </g>
    </g>
</svg>