<svg id="레이어_1" data-name="레이어 1" xmlns="http://www.w3.org/2000/svg" viewBox="0 0 851 254"><defs><style>.cls-1{fill:#f4f4f4;}.cls-2{fill:#fff;}</style></defs><title>kuko_white</title><rect class="cls-1" x="98.78" y="115.47" width="59.06" height="149.51" rx="29.53" transform="translate(-96.93 146.44) rotate(-45)"/><rect class="cls-1" x="-0.36" y="-0.13" width="59.36" height="251.87" rx="29.68"/><rect class="cls-2" x="61.35" y="21.13" width="59.55" height="252.92" rx="29.78" transform="translate(115.25 -24.18) rotate(39.69)"/><rect class="cls-1" x="535.78" y="115.47" width="59.06" height="149.51" rx="29.53" transform="translate(31.06 455.45) rotate(-45)"/><rect class="cls-1" x="436.64" y="-0.13" width="59.36" height="251.87" rx="29.68"/><rect class="cls-2" x="498.35" y="21.13" width="59.55" height="252.92" rx="29.78" transform="translate(215.96 -303.25) rotate(39.69)"/><path class="cls-1" d="M399.67,169.15c-.2-5.59,0-94.43,0-94.43a27.89,27.89,0,0,0-55.78,0v85.43c0,27.24-20,38.49-35.16,38.49-15.43,0-35.88-11.25-35.88-38.49V74.72a27.89,27.89,0,1,0-55.77,0v94.43c0,78.52,75.5,84.82,91.2,84.82S399.67,248.57,399.67,169.15Z"/><path class="cls-1" d="M745.82,44.1A104.82,104.82,0,1,0,850.64,148.92,104.82,104.82,0,0,0,745.82,44.1Zm0,153.41a48.59,48.59,0,1,1,48.59-48.59A48.58,48.58,0,0,1,745.82,197.51Z"/></svg>